<svg width="174" height="17" viewBox="0 0 174 17" fill="none" xmlns="http://www.w3.org/2000/svg">
<path d="M114.758 0.810547C114.979 0.810547 115.158 0.989633 115.158 1.21055V3.61055C115.158 3.83146 114.979 4.01055 114.758 4.01055H109.16C108.94 4.01055 108.761 4.18963 108.761 4.41055V16.4105C108.761 16.6315 108.582 16.8105 108.361 16.8105H105.962C105.741 16.8105 105.562 16.6315 105.562 16.4105V4.41055C105.562 4.18963 105.383 4.01055 105.162 4.01055H99.5639C99.3431 4.01055 99.1641 3.83146 99.1641 3.61055V1.21055C99.1641 0.989633 99.3431 0.810547 99.5639 0.810547H114.758Z" fill="#272E35"/>
<path d="M159.542 0.810547C159.763 0.810547 159.942 0.989633 159.942 1.21055V6.81055C159.942 7.03146 160.121 7.21055 160.342 7.21055H169.139C169.359 7.21055 169.539 7.03146 169.539 6.81055V1.21055C169.539 0.989633 169.718 0.810547 169.938 0.810547H172.338C172.558 0.810547 172.737 0.989633 172.737 1.21055V16.4105C172.737 16.6315 172.558 16.8105 172.338 16.8105H169.938C169.718 16.8105 169.539 16.6315 169.539 16.4105V10.8105C169.539 10.5896 169.359 10.4105 169.139 10.4105H160.342C160.121 10.4105 159.942 10.5896 159.942 10.8105V16.4105C159.942 16.6315 159.763 16.8105 159.542 16.8105H157.143C156.922 16.8105 156.743 16.6315 156.743 16.4105V1.21055C156.743 0.989633 156.922 0.810547 157.143 0.810547H159.542Z" fill="#272E35"/>
<path d="M121.556 1.21055C121.556 0.989633 121.735 0.810547 121.956 0.810547H133.951C134.172 0.810547 134.351 0.989633 134.351 1.21055V3.61055C134.351 3.83146 134.172 4.01055 133.951 4.01055H122.039C121.911 4.01055 121.788 4.06142 121.697 4.15198C121.607 4.24254 121.556 4.36537 121.556 4.49344V6.81055C121.556 7.03146 121.735 7.21055 121.956 7.21055H127.554C127.775 7.21055 127.954 7.38963 127.954 7.61055V10.0105C127.954 10.2315 127.775 10.4105 127.554 10.4105H121.956C121.735 10.4105 121.556 10.5896 121.556 10.8105V13.2105C121.556 13.4315 121.735 13.6105 121.956 13.6105H133.951C134.172 13.6105 134.351 13.7896 134.351 14.0105V16.4105C134.351 16.6315 134.172 16.8105 133.951 16.8105H118.757C118.536 16.8105 118.357 16.6315 118.357 16.4105V4.41055C118.357 4.18963 118.536 4.01055 118.757 4.01055L121.073 4.01055C121.201 4.01055 121.324 3.95968 121.415 3.86914C121.505 3.7786 121.556 3.6558 121.556 3.52776V1.21055Z" fill="#272E35"/>
<path d="M140.749 1.21055C140.749 0.989633 140.928 0.810547 141.149 0.810547H153.144C153.365 0.810547 153.544 0.989633 153.544 1.21055V3.61055C153.544 3.83146 153.365 4.01055 153.144 4.01055H141.232C141.104 4.01055 140.981 4.06142 140.89 4.15198C140.8 4.24254 140.749 4.36537 140.749 4.49344V13.1277C140.749 13.2558 140.8 13.3786 140.89 13.4691C140.981 13.5597 141.104 13.6105 141.232 13.6105H153.144C153.365 13.6105 153.544 13.7896 153.544 14.0105V16.4105C153.544 16.6315 153.365 16.8105 153.144 16.8105H141.149C140.928 16.8105 140.749 16.6315 140.749 16.4105V14.0934C140.749 13.9653 140.698 13.8425 140.608 13.752C140.517 13.6614 140.394 13.6105 140.266 13.6105H137.95C137.729 13.6105 137.55 13.4315 137.55 13.2105V4.41055C137.55 4.18963 137.729 4.01055 137.95 4.01055L140.266 4.01055C140.394 4.01055 140.517 3.95968 140.608 3.86914C140.698 3.7786 140.749 3.6558 140.749 3.52776V1.21055Z" fill="#272E35"/>
<path d="M0.399855 0.810547C0.179021 0.810547 0 0.989633 0 1.21055V3.61055C0 3.83146 0.179021 4.01055 0.399855 4.01055H5.99782C6.21866 4.01055 6.39768 4.18963 6.39768 4.41055L6.39768 16.4105C6.39768 16.6315 6.5767 16.8105 6.79753 16.8105H9.19666C9.4175 16.8105 9.59652 16.6315 9.59652 16.4105L9.59652 4.41055C9.59652 4.18963 9.77554 4.01055 9.99637 4.01055H15.5943C15.8152 4.01055 15.9942 3.83146 15.9942 3.61055V1.21055C15.9942 0.989633 15.8152 0.810547 15.5943 0.810547H0.399855Z" fill="#272E35"/>
<path fill-rule="evenodd" clip-rule="evenodd" d="M22.3919 1.21055C22.3919 0.989633 22.5709 0.810547 22.7917 0.810547H34.7874C35.0082 0.810547 35.1872 0.989633 35.1872 1.21055V16.4105C35.1872 16.6315 35.0082 16.8105 34.7874 16.8105H32.3882C32.1674 16.8105 31.9884 16.6315 31.9884 16.4105V10.8105C31.9884 10.5896 31.8094 10.4105 31.5885 10.4105H22.7917C22.5709 10.4105 22.3919 10.5896 22.3919 10.8105V16.4105C22.3919 16.6315 22.2129 16.8105 21.992 16.8105H19.5929C19.3721 16.8105 19.193 16.6315 19.193 16.4105V4.41055C19.193 4.18963 19.3721 4.01055 19.5929 4.01055L21.9093 4.01055C22.0373 4.01055 22.16 3.95968 22.2505 3.86914C22.341 3.7786 22.3919 3.6558 22.3919 3.52776V1.21055ZM22.5333 4.15198C22.6238 4.06142 22.7466 4.01055 22.8746 4.01055H31.5885C31.8094 4.01055 31.9884 4.18963 31.9884 4.41055V6.81055C31.9884 7.03146 31.8094 7.21055 31.5885 7.21055H22.7917C22.5709 7.21055 22.3919 7.03146 22.3919 6.81055V4.49344C22.3919 4.36537 22.4427 4.24254 22.5333 4.15198Z" fill="#272E35"/>
<path d="M92.7663 1.21055C92.7663 0.989633 92.5873 0.810547 92.3665 0.810547H80.3708C80.15 0.810547 79.971 0.989633 79.971 1.21055V3.52776C79.971 3.6558 79.9201 3.7786 79.8296 3.86914C79.7391 3.95968 79.6164 4.01055 79.4884 4.01055H77.172C76.9512 4.01055 76.7721 4.18963 76.7721 4.41055V10.0105C76.7721 10.2315 76.9512 10.4105 77.172 10.4105H89.1676C89.3885 10.4105 89.5675 10.5896 89.5675 10.8105V13.2105C89.5675 13.4315 89.3885 13.6105 89.1676 13.6105H77.172C76.9512 13.6105 76.7721 13.7896 76.7721 14.0105V16.4105C76.7721 16.6315 76.9512 16.8105 77.172 16.8105H92.3665C92.5873 16.8105 92.7663 16.6315 92.7663 16.4105V7.61055C92.7663 7.38963 92.5873 7.21055 92.3665 7.21055H80.3708C80.15 7.21055 79.971 7.03146 79.971 6.81055V4.49344C79.971 4.36537 80.0218 4.24254 80.1124 4.15198C80.2029 4.06142 80.3257 4.01055 80.4537 4.01055H92.3665C92.5873 4.01055 92.7663 3.83146 92.7663 3.61055V1.21055Z" fill="#272E35"/>
<path fill-rule="evenodd" clip-rule="evenodd" d="M70.3745 1.21055C70.3745 0.989633 70.1954 0.810547 69.9746 0.810547H61.1778C60.957 0.810547 60.7779 0.989633 60.7779 1.21055V3.52776C60.7779 3.6558 60.7271 3.7786 60.6366 3.86914C60.5461 3.95968 60.4233 4.01055 60.2953 4.01055L57.979 4.01055C57.7581 4.01055 57.5791 4.18963 57.5791 4.41055V13.2105C57.5791 13.4315 57.7581 13.6105 57.979 13.6105H60.2953C60.4233 13.6105 60.5461 13.6614 60.6366 13.752C60.7271 13.8425 60.7779 13.9653 60.7779 14.0934V16.4105C60.7779 16.6315 60.957 16.8105 61.1778 16.8105H69.9746C70.1954 16.8105 70.3745 16.6315 70.3745 16.4105V14.0934C70.3745 13.9654 70.4253 13.8425 70.5158 13.752C70.6064 13.6614 70.7292 13.6105 70.8572 13.6105H73.1734C73.3943 13.6105 73.5733 13.4315 73.5733 13.2105V4.41055C73.5733 4.18963 73.3943 4.01055 73.1734 4.01055H70.8571C70.7291 4.01055 70.6063 3.95968 70.5158 3.86913C70.4253 3.77857 70.3745 3.65576 70.3745 3.5277V1.21055ZM70.2331 13.4691C70.3236 13.3786 70.3745 13.2558 70.3745 13.1278V4.49339C70.3745 4.36533 70.3236 4.24252 70.2331 4.15197C70.1426 4.06142 70.0198 4.01055 69.8918 4.01055H61.2607C61.1326 4.01055 61.0099 4.06142 60.9193 4.15198C60.8288 4.24254 60.7779 4.36537 60.7779 4.49344V13.1277C60.7779 13.2558 60.8288 13.3786 60.9193 13.4691C61.0098 13.5597 61.1326 13.6105 61.2606 13.6105H69.8918C70.0198 13.6105 70.1426 13.5597 70.2331 13.4691Z" fill="#272E35"/>
<path d="M41.7263 3.86913C41.6358 3.77857 41.5849 3.65576 41.5849 3.5277V1.21055C41.5849 0.989633 41.4059 0.810547 41.1851 0.810547H38.7859C38.5651 0.810547 38.3861 0.989633 38.3861 1.21055V16.4105C38.3861 16.6315 38.5651 16.8105 38.7859 16.8105H41.1851C41.4059 16.8105 41.5849 16.6315 41.5849 16.4105V7.61055C41.5849 7.38963 41.7639 7.21055 41.9848 7.21055H44.3011C44.4291 7.21055 44.5519 7.26142 44.6424 7.35197C44.7329 7.44252 44.7837 7.56533 44.7837 7.69339V10.0105C44.7837 10.2315 44.9628 10.4105 45.1836 10.4105H47.4999C47.6279 10.4105 47.7507 10.4614 47.8412 10.552C47.9317 10.6425 47.9826 10.7653 47.9826 10.8934V13.2105C47.9826 13.4315 48.1616 13.6105 48.3824 13.6105H50.6988C50.8268 13.6105 50.9495 13.6614 51.0401 13.752C51.1306 13.8425 51.1814 13.9653 51.1814 14.0934V16.4105C51.1814 16.6315 51.3604 16.8105 51.5813 16.8105H53.9804C54.2012 16.8105 54.3803 16.6315 54.3803 16.4105V1.21055C54.3803 0.989633 54.2012 0.810547 53.9804 0.810547H51.5813C51.3604 0.810547 51.1814 0.989633 51.1814 1.21055V10.0105C51.1814 10.2315 51.0024 10.4105 50.7816 10.4105H48.4653C48.3372 10.4105 48.2145 10.3597 48.124 10.2691C48.0334 10.1786 47.9826 10.0558 47.9826 9.9277V7.61055C47.9826 7.38963 47.8036 7.21055 47.5827 7.21055H45.2664C45.1384 7.21055 45.0156 7.15968 44.9251 7.06913C44.8346 6.97858 44.7837 6.85576 44.7837 6.7277V4.41055C44.7837 4.18963 44.6047 4.01055 44.3839 4.01055H42.0676C41.9396 4.01055 41.8168 3.95968 41.7263 3.86913Z" fill="#272E35"/>
</svg>
